<?xml version="1.0" encoding="UTF-8" standalone="no"?>
<svg
   width="487.44281"
   zoomAndPan="magnify"
   viewBox="0 0 365.58211 358.42554"
   height="477.90073"
   preserveAspectRatio="xMidYMid"
   version="1.0"
   id="svg1741"
   sodipodi:docname="U_logo.svg"
   inkscape:export-filename="BOBBYU.svg"
   inkscape:export-xdpi="96"
   inkscape:export-ydpi="96"
   xmlns:inkscape="http://www.inkscape.org/namespaces/inkscape"
   xmlns:sodipodi="http://sodipodi.sourceforge.net/DTD/sodipodi-0.dtd"
   xmlns:xlink="http://www.w3.org/1999/xlink"
   xmlns="http://www.w3.org/2000/svg"
   xmlns:svg="http://www.w3.org/2000/svg">
  <sodipodi:namedview
     id="namedview1743"
     pagecolor="#ffffff"
     bordercolor="#000000"
     borderopacity="0.25"
     inkscape:showpageshadow="2"
     inkscape:pageopacity="0.0"
     inkscape:pagecheckerboard="0"
     inkscape:deskcolor="#d1d1d1"
     showgrid="false">
    <inkscape:grid
       type="xygrid"
       id="grid12321" />
  </sodipodi:namedview>
  <defs
     id="defs1715">
    <linearGradient
       inkscape:collect="always"
       id="linearGradient8299">
      <stop
         style="stop-color:#a6d060;stop-opacity:1;"
         offset="0"
         id="stop8295" />
      <stop
         style="stop-color:#59b88f;stop-opacity:1"
         offset="0.99989998"
         id="stop8297" />
    </linearGradient>
    <clipPath
       id="6a1752a374">
      <path
         d="M 83,106 H 284 V 233 H 83 Z m 0,0"
         clip-rule="nonzero"
         id="path1706" />
    </clipPath>
    <clipPath
       id="c2366d5c23">
      <path
         d="M 283.57031,105.80859 299.28516,198.23047 84.125,234.81641 68.410156,142.39062 Z m 0,0"
         clip-rule="nonzero"
         id="path1709" />
    </clipPath>
    <clipPath
       id="d47be27190">
      <path
         d="m 299.23047,197.89453 -15.71485,-92.42187 -215.164058,36.58203 15.714844,92.42578 z m 0,0"
         clip-rule="nonzero"
         id="path1712" />
    </clipPath>
    <radialGradient
       inkscape:collect="always"
       xlink:href="#linearGradient8299"
       id="radialGradient8301"
       cx="186.66754"
       cy="163.49977"
       fx="186.66754"
       fy="163.49977"
       r="99.878906"
       gradientTransform="matrix(-0.29816761,1.7995736,-0.5321101,-0.08816381,329.32565,-155.71301)"
       gradientUnits="userSpaceOnUse" />
  </defs>
  <g
     fill="#59b88f"
     fill-opacity="1"
     id="g1723"
     transform="translate(-5.3674368,-4.1746731)">
    <g
       transform="translate(38.547691,349.12461)"
       id="g1721">
      <g
         id="g1719">
        <path
           d="m 264.54688,-118.07031 v -192.64063 c 0,-27.20781 -36.83985,0 -36.83985,0 v 190.86719 c 0,58.144531 -31.07031,90.992188 -82.5625,90.992188 -51.48828,0 -82.558592,-32.847657 -82.558592,-90.992188 v -190.86719 c 0,0 -36.839844,-26.86341 -36.839844,0 v 192.64063 c 0,76.78906 46.160156,122.066404 119.398436,122.066404 72.79688,0 119.40235,-45.277344 119.40235,-122.066404 z"
           id="path12848"
           sodipodi:nodetypes="sccsssccsss" />
      </g>
    </g>
  </g>
  <g
     clip-path="url(#6a1752a374)"
     id="g1739"
     transform="translate(-5.3674368,-4.1746731)">
    <g
       clip-path="url(#c2366d5c23)"
       id="g1737">
      <g
         clip-path="url(#d47be27190)"
         id="g1735">
        <path
           fill="#59b88f"
           d="m 200.70312,157.05078 65.6875,-39.8125 17.21875,-10.43359 -13.8164,14.67578 -87.48438,92.91406 -3.77734,4.01563 -0.90625,-5.45704 -5.47266,-33.05468 -69.84375,41.67578 -18.457028,11.01172 15.117188,-15.3086 91.72266,-92.88671 3.73046,-3.77735 0.90235,5.25 5.3789,31.1875"
           fill-opacity="1"
           fill-rule="nonzero"
           id="path1733"
           style="fill:url(#radialGradient8301);fill-opacity:1" />
      </g>
    </g>
  </g>
  <rect
     style="opacity:1;fill:#1a1a1a;fill-opacity:5.98384e-08;stroke-width:0.75"
     id="rect2439"
     width="11.29243"
     height="11.186893"
     x="254.04184"
     y="10.706005" />
  <rect
     style="opacity:1;fill:#000000;fill-opacity:0;stroke-width:0.75"
     id="rect12257"
     width="357.8291"
     height="358.42557"
     x="7.1565829e-08"
     y="4.323073e-07" />
  <rect
     style="opacity:1;fill:#ff0000;fill-opacity:0;stroke-width:0.75"
     id="rect12259"
     width="347.09427"
     height="348.88342"
     x="3.5782914"
     y="1.1927638" />
  <rect
     style="opacity:1;fill:#ff0000;fill-opacity:0;stroke-width:0.75"
     id="rect12313"
     width="364.38937"
     height="323.23898"
     x="1.1927644"
     y="0.59638208" />
  <rect
     style="opacity:1;fill:#1a1a1a;fill-opacity:0;stroke-width:0.75"
     id="rect12317"
     width="92.439194"
     height="68.583923"
     x="14.909549"
     y="148.4991" />
</svg>
